HIERARCHY
ROOT Hips
{
	OFFSET	0.00	0.00	0.00
	CHANNELS 6 Xposition Yposition Zposition Zrotation Xrotation Yrotation
	JOINT LeftUpLeg
	{
		OFFSET	 0.126116	-0.014019	-0.065224
		CHANNELS 3 Zrotation Xrotation Yrotation
		JOINT LeftLeg
		{
			OFFSET	 0.000000	 0.000000	 0.569914
			CHANNELS 3 Zrotation Xrotation Yrotation
			JOINT LeftFoot
			{
				OFFSET	 0.000000	 0.000000	 0.544423
				CHANNELS 3 Zrotation Xrotation Yrotation
				JOINT LeftToeBase
				{
					OFFSET	 0.000000	 0.000000	 0.207117
					CHANNELS 3 Zrotation Xrotation Yrotation
					End Site
					{
						OFFSET	 0.000000	 0.000000	 0.207117
					}
				}
			}
		}
	}
	JOINT RightUpLeg
	{
		OFFSET	-0.124023	-0.008373	-0.065224
		CHANNELS 3 Zrotation Xrotation Yrotation
		JOINT RightLeg
		{
			OFFSET	 0.000000	 0.000000	 0.570047
			CHANNELS 3 Zrotation Xrotation Yrotation
			JOINT RightFoot
			{
				OFFSET	 0.000000	 0.000000	 0.544354
				CHANNELS 3 Zrotation Xrotation Yrotation
				JOINT RightToeBase
				{
					OFFSET	 0.000000	 0.000000	 0.207540
					CHANNELS 3 Zrotation Xrotation Yrotation
					End Site
					{
						OFFSET	 0.000000	 0.000000	 0.207540
					}
				}
			}
		}
	}
	JOINT Spine
	{
		OFFSET	 0.000184	-0.007763	 0.117403
		CHANNELS 3 Zrotation Xrotation Yrotation
		JOINT Spine1
		{
			OFFSET	 0.000000	 0.000000	 0.137269
			CHANNELS 3 Zrotation Xrotation Yrotation
			JOINT Spine2
			{
				OFFSET	 0.000000	 0.000000	 0.156879
				CHANNELS 3 Zrotation Xrotation Yrotation
				JOINT LeftShoulder
				{
					OFFSET	 0.080501	-0.002496	 0.160144
					CHANNELS 3 Zrotation Xrotation Yrotation
					JOINT LeftArm
					{
						OFFSET	 0.000000	 0.000000	 0.164363
						CHANNELS 3 Zrotation Xrotation Yrotation
						JOINT LeftForeArm
						{
							OFFSET	 0.000000	 0.000000	 0.364576
							CHANNELS 3 Zrotation Xrotation Yrotation
							JOINT LeftHand
							{
								OFFSET	 0.000000	 0.000000	 0.360812
								CHANNELS 3 Zrotation Xrotation Yrotation
								JOINT LeftHandIndex1
								{
									OFFSET	 0.000000	 0.000000	 0.086006
									CHANNELS 3 Zrotation Xrotation Yrotation
									JOINT LeftHandIndex2
									{
										OFFSET	 0.000000	 0.000000	 0.047237
										CHANNELS 3 Zrotation Xrotation Yrotation
										JOINT LeftHandIndex3
										{
											OFFSET	-0.004284	-0.000551	 0.038165
											CHANNELS 3 Zrotation Xrotation Yrotation
											End Site
											{
												OFFSET	-0.004284	-0.000551	 0.038165
											}
										}
									}
								}
							}
						}
					}
				}
				JOINT Neck
				{
					OFFSET	 0.000000	 0.000000	 0.176489
					CHANNELS 3 Zrotation Xrotation Yrotation
					JOINT Head
					{
						OFFSET	 0.000000	-0.001747	 0.077940
						CHANNELS 3 Zrotation Xrotation Yrotation
						End Site
						{
							OFFSET	 0.000000	-0.001747	 0.077940
						}
					}
				}
				JOINT RightShoulder
				{
					OFFSET	-0.080363	 0.000306	 0.159706
					CHANNELS 3 Zrotation Xrotation Yrotation
					JOINT RightArm
					{
						OFFSET	 0.000000	 0.000000	 0.164196
						CHANNELS 3 Zrotation Xrotation Yrotation
						JOINT RightForeArm
						{
							OFFSET	 0.000000	 0.000000	 0.365611
							CHANNELS 3 Zrotation Xrotation Yrotation
							JOINT RightHand
							{
								OFFSET	 0.000000	 0.000000	 0.360648
								CHANNELS 3 Zrotation Xrotation Yrotation
								JOINT RightHandIndex1
								{
									OFFSET	 0.000000	 0.000000	 0.069977
									CHANNELS 3 Zrotation Xrotation Yrotation
									JOINT RightHandIndex2
									{
										OFFSET	 0.000000	 0.000000	 0.052305
										CHANNELS 3 Zrotation Xrotation Yrotation
										JOINT RightHandIndex3
										{
											OFFSET	 0.009002	-0.000782	 0.042196
											CHANNELS 3 Zrotation Xrotation Yrotation
											End Site
											{
												OFFSET	 0.009002	-0.000782	 0.042196
											}
										}
									}
								}
							}
						}
					}
				}
			}
		}
	}
}
MOTION
Frames:    9
Frame Time: 0.03333334
-0.368745	 0.137652	 1.207441	-176.122300	 7.586616	 18.310250	 34.584160	-23.792940	 164.316800	-11.241570	-55.514170	-9.772928	 160.181600	 74.815320	-173.415200	-2.385833	 28.452760	 0.000004	-36.299010	-35.518840	 144.116500	 5.668136	-52.259200	 3.280341	-18.540620	 73.966260	 40.891270	 2.384659	 28.388700	-0.000001	 89.840360	-24.621880	 4.447551	 59.127860	 26.466250	 6.683911	-13.597250	-7.403294	-17.040110	-91.776160	 78.527360	 180.000000	 0.669792	 39.762360	-36.658980	-2.672461	 5.260638	-77.342800	 4.024799	-26.414040	-0.831217	-4.130319	 21.525730	 0.991547	-5.167930	 0.731704	 3.519349	-1.378229	 35.397820	-2.634230	-18.557760	 6.992100	 7.826450	-24.715740	-21.151550	-16.206830	 89.782100	 78.296270	 179.999700	 15.696230	 54.966010	 35.442140	-11.597550	 1.265453	 9.589910	-61.629040	-46.965700	-164.498900	 5.716227	 19.173190	-3.685159	 5.027444	 0.246877	-9.377972	-2.350882	 35.473990	 5.254307
-0.376321	 0.150292	 1.210645	-175.377100	 7.847824	 17.158840	 36.098820	-21.988000	 165.577500	-10.769070	-53.303090	-9.127192	 158.487300	 75.505000	-171.652200	-2.385833	 28.452760	 0.000004	-35.672150	-36.037330	 146.207500	 6.121224	-52.217860	 3.637395	-17.197190	 74.437920	 38.233870	 2.384659	 28.388700	-0.000001	 88.335080	-23.253080	 5.026779	 56.683490	 25.273020	 8.431938	-13.594900	-7.102697	-17.206760	-91.776220	 78.527350	-180.000000	-1.250317	 37.973840	-32.800590	-2.575690	 5.238300	-78.066340	 4.580773	-27.040260	-0.641230	-4.130319	 21.525730	 0.991547	-5.167930	 0.731704	 3.519349	-1.378229	 35.397820	-2.634230	-17.844440	 7.700006	 7.576763	-24.685960	-22.256590	-16.127190	 89.782090	 78.284660	-179.999300	 15.207950	 39.479000	 30.061950	-9.982182	 1.305553	 9.661284	-44.639710	-40.232490	-147.136600	 5.716227	 19.173190	-3.685159	 5.027444	 0.246877	-9.377972	-2.350882	 35.473990	 5.254307
-0.386383	 0.163905	 1.213027	-174.793800	 8.266932	 15.118680	 37.598010	-18.942650	 167.546000	-10.573120	-50.344690	-8.616495	 157.750400	 75.500020	-170.458000	-2.385833	 28.452760	 0.000004	-33.914430	-37.382490	 149.507700	 6.151982	-52.579080	 3.679539	-13.512940	 75.058720	 33.392850	 2.384659	 28.388700	-0.000001	 86.980020	-21.289610	 6.095284	 54.100800	 24.058020	 9.935231	-13.630080	-6.640855	-17.241600	-91.776180	 78.527420	 180.000000	-3.317067	 35.262570	-28.250670	-2.513530	 5.268358	-78.622830	 5.005795	-27.950490	-0.451343	-4.130319	 21.525730	 0.991547	-5.167930	 0.731704	 3.519349	-1.378229	 35.397820	-2.634230	-17.489600	 7.697483	 8.382370	-24.523160	-21.880520	-17.494870	 89.782100	 78.203890	 180.000000	 15.736950	 24.504440	 22.189930	-8.627804	 1.344861	 9.755477	-33.425240	-33.017380	-130.607500	 5.716227	 19.173190	-3.685159	 5.027444	 0.246877	-9.377972	-2.350882	 35.473990	 5.254307
-0.397102	 0.178079	 1.215203	-173.926800	 8.597480	 13.622860	 39.089010	-15.681830	 168.781300	-10.391730	-47.180480	-8.079478	 158.287500	 75.038510	-170.380600	-2.385833	 28.452760	 0.000004	-32.079760	-37.805290	 152.737900	 6.193912	-52.963380	 3.731831	-10.204520	 76.850610	 28.511570	 2.384659	 28.388700	-0.000001	 84.647310	-19.455350	 6.568944	 51.336380	 22.839650	 11.433650	-13.618410	-6.321991	-17.324490	-91.776180	 78.527380	-180.000000	-5.152931	 32.463070	-22.079340	-2.485359	 5.530077	-79.679470	 5.330922	-29.258540	-0.343755	-4.130319	 21.525730	 0.991547	-5.167930	 0.731704	 3.519349	-1.378229	 35.397820	-2.634230	-16.969190	 7.677400	 8.246804	-24.167200	-22.215760	-16.694440	 89.782100	 78.203920	-180.000000	 24.063500	 11.447540	 3.580737	-8.493985	 0.707580	 26.502490	-37.839260	-21.169090	-120.862400	 5.716227	 19.173190	-3.685159	 5.027444	 0.246877	-9.377972	-2.350882	 35.473990	 5.254307
-0.407291	 0.194089	 1.218746	-172.970900	 8.477552	 12.432140	 40.593650	-12.631640	 169.509800	-10.237530	-43.900190	-7.534263	 155.669000	 75.147500	-167.244800	-2.385833	 28.452760	 0.000004	-29.955340	-37.590360	 155.632200	 5.960491	-52.730740	 3.534219	-5.518075	 78.272020	 22.439930	 2.384659	 28.388700	-0.000001	 81.858020	-17.904260	 7.253175	 48.466800	 20.995510	 13.394020	-13.450520	-5.380315	-17.814720	-91.776150	 78.527350	 180.000000	-6.701261	 29.667100	-16.065640	-2.560881	 5.940777	-80.142400	 5.641410	-30.770790	-0.306539	-4.130319	 21.525730	 0.991547	-5.167930	 0.731704	 3.519349	-1.378229	 35.397820	-2.634230	-16.421980	 7.674609	 8.238190	-23.883920	-22.389030	-16.339580	 89.782050	 78.203890	-180.000000	 43.733220	-0.132417	-12.204670	-8.535604	-0.373383	 52.630720	-54.649720	-0.350897	-111.250000	 5.716227	 19.173190	-3.685159	 5.027444	 0.246877	-9.377972	-2.350882	 35.473990	 5.254307
-0.415725	 0.211091	 1.223315	-172.056300	 8.150109	 11.418240	 41.730740	-9.222961	 169.556400	-10.185520	-40.294220	-6.997861	 152.709000	 75.813720	-163.642100	-2.385833	 28.452760	 0.000004	-27.491360	-36.781910	 158.450900	 5.519408	-52.536880	 3.174315	 1.722994	 79.868300	 14.059520	 2.384659	 28.388700	-0.000001	 78.644270	-16.395900	 7.654645	 45.539470	 18.998780	 15.428450	-13.180050	-3.971953	-18.400790	-91.776160	 78.527380	 180.000000	-7.767912	 26.926770	-9.384351	-2.456310	 6.487273	-82.493550	 5.885584	-32.232200	-0.369040	-4.130319	 21.525730	 0.991547	-5.167930	 0.731704	 3.519349	-1.378229	 35.397820	-2.634230	-15.991060	 7.892813	 8.747413	-23.722280	-22.203540	-17.333240	 89.782060	 78.203890	-180.000000	 55.622080	-8.475531	-3.829783	-8.440125	 0.435428	 36.248360	-64.203960	-4.131149	-93.718560	 5.716227	 19.173190	-3.685159	 5.027444	 0.246877	-9.377972	-2.350882	 35.473990	 5.254307
-0.420447	 0.222593	 1.226653	-171.359800	 7.537373	 10.629200	 42.305510	-6.203514	 169.440600	-10.239030	-36.905500	-6.535070	 149.660500	 76.548340	-160.010200	-2.385833	 28.452760	 0.000004	-26.157690	-35.966520	 160.497500	 5.599682	-52.439610	 3.233936	 5.469713	 80.723600	 9.582932	 2.384659	 28.388700	-0.000001	 75.994540	-14.889950	 8.302280	 43.208460	 16.681640	 17.078520	-12.877590	-3.042710	-18.718460	-91.776180	 78.527350	 180.000000	-8.349503	 25.582510	-4.357839	-2.297956	 7.087209	-85.090250	 5.861357	-33.278480	-0.591378	-4.130319	 21.525730	 0.991547	-5.167930	 0.731704	 3.519349	-1.378229	 35.397820	-2.634230	-15.320200	 8.890922	 8.153165	-23.571150	-23.502440	-16.545620	 89.782010	 78.203890	-179.999900	 56.196430	-11.349140	 8.753687	-7.704216	 1.473377	 10.166880	-65.660040	-17.450100	-84.609130	 5.716227	 19.173190	-3.685159	 5.027444	 0.246877	-9.377972	-2.350882	 35.473990	 5.254307
-0.422775	 0.229490	 1.229092	-170.812800	 6.950086	 9.662019	 43.204630	-3.764218	 169.564300	-10.369780	-34.048780	-6.171725	 147.485900	 77.034490	-157.230700	-2.385833	 28.452760	 0.000004	-23.675490	-36.003070	 162.593800	 4.740932	-52.347490	 2.549014	 12.212450	 80.740550	 2.645302	 2.384659	 28.388700	-0.000001	 74.094080	-13.506380	 9.350348	 41.540190	 14.599350	 18.164310	-12.598980	-2.039854	-18.844850	-91.776210	 78.527380	-180.000000	-9.235593	 25.063920	-1.371009	-2.136588	 7.353643	-86.778810	 6.204542	-34.055630	-0.577883	-4.130319	 21.525730	 0.991547	-5.167930	 0.731704	 3.519349	-1.378229	 35.397820	-2.634230	-14.532950	 8.972919	 7.448385	-23.167600	-23.437670	-15.811550	 89.782140	 78.203850	 180.000000	 54.991540	-12.773440	 8.399462	-7.518716	 1.496195	 10.229190	-65.589960	-17.684650	-82.111340	 5.716227	 19.173190	-3.685159	 5.027444	 0.246877	-9.377972	-2.350882	 35.473990	 5.254307
-0.422544	 0.232716	 1.230454	-170.336100	 6.643672	 9.558648	 44.174530	-3.428679	 169.125500	-10.845590	-33.083750	-6.284960	 145.195700	 77.353300	-154.524700	-2.385833	 28.452760	 0.000004	-22.053470	-35.678300	 163.199600	 4.134008	-51.640080	 2.048175	 15.654570	 80.475230	-1.030287	 2.384659	 28.388700	-0.000001	 72.369090	-12.948580	 9.500247	 40.566160	 13.166050	 18.857510	-12.337630	-1.261360	-18.968230	-91.776180	 78.527430	-180.000000	-10.350120	 25.414950	-0.040741	-2.126348	 7.579468	-87.176010	 6.582637	-34.941320	-0.541427	-4.130319	 21.525730	 0.991547	-5.167930	 0.731704	 3.519349	-1.378229	 35.397820	-2.634230	-13.846290	 8.499310	 7.284610	-22.725680	-22.964980	-15.221540	 89.782120	 78.203870	 180.000000	 53.208130	-13.044900	 8.395817	-7.465401	 1.513208	 10.280530	-64.743260	-18.037950	-80.797090	 5.716227	 19.173190	-3.685159	 5.027444	 0.246877	-9.377972	-2.350882	 35.473990	 5.254307
